<mxfile host="app.diagrams.net" modified="2022-08-08T04:57:38.951Z" agent="5.0 (Windows NT 10.0; Win64; x64) AppleWebKit/537.36 (KHTML, like Gecko) Chrome/104.0.0.0 Safari/537.36" etag="znH_L5gGy9uHu_YGt-8V" version="20.2.3" type="github">
  <diagram id="1HRSXrbKBfz9Ge-uPF9W" name="Page-1">
    <mxGraphModel dx="1063" dy="653" grid="1" gridSize="10" guides="1" tooltips="1" connect="1" arrows="1" fold="1" page="1" pageScale="1" pageWidth="1169" pageHeight="826" math="0" shadow="0">
      <root>
        <mxCell id="0" />
        <mxCell id="1" parent="0" />
        <mxCell id="SgcpTPaqbiLLk39mLgNB-14" style="edgeStyle=orthogonalEdgeStyle;rounded=0;orthogonalLoop=1;jettySize=auto;html=1;exitX=0.5;exitY=1;exitDx=0;exitDy=0;entryX=0.5;entryY=0;entryDx=0;entryDy=0;" edge="1" parent="1" source="SgcpTPaqbiLLk39mLgNB-1" target="SgcpTPaqbiLLk39mLgNB-3">
          <mxGeometry relative="1" as="geometry" />
        </mxCell>
        <mxCell id="SgcpTPaqbiLLk39mLgNB-1" value="Studi kelayakan" style="rounded=0;whiteSpace=wrap;html=1;" vertex="1" parent="1">
          <mxGeometry x="200" y="80" width="80" height="40" as="geometry" />
        </mxCell>
        <mxCell id="SgcpTPaqbiLLk39mLgNB-16" style="edgeStyle=orthogonalEdgeStyle;rounded=0;orthogonalLoop=1;jettySize=auto;html=1;exitX=0.5;exitY=1;exitDx=0;exitDy=0;" edge="1" parent="1" source="SgcpTPaqbiLLk39mLgNB-3" target="SgcpTPaqbiLLk39mLgNB-4">
          <mxGeometry relative="1" as="geometry" />
        </mxCell>
        <mxCell id="SgcpTPaqbiLLk39mLgNB-3" value="Studi bisnis&amp;nbsp;" style="rounded=0;whiteSpace=wrap;html=1;" vertex="1" parent="1">
          <mxGeometry x="190" y="150" width="100" height="40" as="geometry" />
        </mxCell>
        <mxCell id="SgcpTPaqbiLLk39mLgNB-17" style="edgeStyle=orthogonalEdgeStyle;rounded=0;orthogonalLoop=1;jettySize=auto;html=1;exitX=0;exitY=0.5;exitDx=0;exitDy=0;curved=1;" edge="1" parent="1" source="SgcpTPaqbiLLk39mLgNB-4" target="SgcpTPaqbiLLk39mLgNB-5">
          <mxGeometry relative="1" as="geometry" />
        </mxCell>
        <mxCell id="SgcpTPaqbiLLk39mLgNB-18" style="edgeStyle=orthogonalEdgeStyle;curved=1;rounded=0;orthogonalLoop=1;jettySize=auto;html=1;exitX=1;exitY=0.5;exitDx=0;exitDy=0;" edge="1" parent="1" source="SgcpTPaqbiLLk39mLgNB-4" target="SgcpTPaqbiLLk39mLgNB-6">
          <mxGeometry relative="1" as="geometry" />
        </mxCell>
        <mxCell id="SgcpTPaqbiLLk39mLgNB-4" value="Identifikasi fungsional prototype" style="ellipse;whiteSpace=wrap;html=1;" vertex="1" parent="1">
          <mxGeometry x="175" y="220" width="130" height="50" as="geometry" />
        </mxCell>
        <mxCell id="SgcpTPaqbiLLk39mLgNB-19" style="edgeStyle=orthogonalEdgeStyle;curved=1;rounded=0;orthogonalLoop=1;jettySize=auto;html=1;entryX=0;entryY=0.5;entryDx=0;entryDy=0;exitX=0.5;exitY=1;exitDx=0;exitDy=0;" edge="1" parent="1" source="SgcpTPaqbiLLk39mLgNB-5" target="SgcpTPaqbiLLk39mLgNB-7">
          <mxGeometry relative="1" as="geometry" />
        </mxCell>
        <mxCell id="SgcpTPaqbiLLk39mLgNB-5" value="Penjadwalan" style="ellipse;whiteSpace=wrap;html=1;" vertex="1" parent="1">
          <mxGeometry x="60" y="300" width="90" height="50" as="geometry" />
        </mxCell>
        <mxCell id="SgcpTPaqbiLLk39mLgNB-23" style="edgeStyle=orthogonalEdgeStyle;curved=1;rounded=0;orthogonalLoop=1;jettySize=auto;html=1;" edge="1" parent="1" source="SgcpTPaqbiLLk39mLgNB-6" target="SgcpTPaqbiLLk39mLgNB-9">
          <mxGeometry relative="1" as="geometry" />
        </mxCell>
        <mxCell id="SgcpTPaqbiLLk39mLgNB-6" value="Review prototype" style="ellipse;whiteSpace=wrap;html=1;" vertex="1" parent="1">
          <mxGeometry x="340" y="300" width="90" height="50" as="geometry" />
        </mxCell>
        <mxCell id="SgcpTPaqbiLLk39mLgNB-21" style="edgeStyle=orthogonalEdgeStyle;curved=1;rounded=0;orthogonalLoop=1;jettySize=auto;html=1;entryX=0.5;entryY=1;entryDx=0;entryDy=0;" edge="1" parent="1" source="SgcpTPaqbiLLk39mLgNB-7" target="SgcpTPaqbiLLk39mLgNB-6">
          <mxGeometry relative="1" as="geometry" />
        </mxCell>
        <mxCell id="SgcpTPaqbiLLk39mLgNB-7" value="Membuat fungsional Prototype" style="ellipse;whiteSpace=wrap;html=1;" vertex="1" parent="1">
          <mxGeometry x="177.5" y="375" width="125" height="50" as="geometry" />
        </mxCell>
        <mxCell id="SgcpTPaqbiLLk39mLgNB-25" style="edgeStyle=orthogonalEdgeStyle;curved=1;rounded=0;orthogonalLoop=1;jettySize=auto;html=1;exitX=0.5;exitY=1;exitDx=0;exitDy=0;entryX=0;entryY=0.5;entryDx=0;entryDy=0;" edge="1" parent="1" source="SgcpTPaqbiLLk39mLgNB-9" target="SgcpTPaqbiLLk39mLgNB-12">
          <mxGeometry relative="1" as="geometry" />
        </mxCell>
        <mxCell id="SgcpTPaqbiLLk39mLgNB-9" value="Identifikasi desain prototype" style="ellipse;whiteSpace=wrap;html=1;" vertex="1" parent="1">
          <mxGeometry x="465" y="300" width="120" height="50" as="geometry" />
        </mxCell>
        <mxCell id="SgcpTPaqbiLLk39mLgNB-24" style="edgeStyle=orthogonalEdgeStyle;curved=1;rounded=0;orthogonalLoop=1;jettySize=auto;html=1;entryX=0.5;entryY=0;entryDx=0;entryDy=0;" edge="1" parent="1" source="SgcpTPaqbiLLk39mLgNB-10" target="SgcpTPaqbiLLk39mLgNB-9">
          <mxGeometry relative="1" as="geometry" />
        </mxCell>
        <mxCell id="SgcpTPaqbiLLk39mLgNB-10" value="Review design prototype" style="ellipse;whiteSpace=wrap;html=1;" vertex="1" parent="1">
          <mxGeometry x="600" y="210" width="90" height="50" as="geometry" />
        </mxCell>
        <mxCell id="SgcpTPaqbiLLk39mLgNB-27" style="edgeStyle=orthogonalEdgeStyle;curved=1;rounded=0;orthogonalLoop=1;jettySize=auto;html=1;entryX=1;entryY=0.5;entryDx=0;entryDy=0;exitX=0.5;exitY=0;exitDx=0;exitDy=0;" edge="1" parent="1" source="SgcpTPaqbiLLk39mLgNB-11" target="SgcpTPaqbiLLk39mLgNB-10">
          <mxGeometry relative="1" as="geometry" />
        </mxCell>
        <mxCell id="SgcpTPaqbiLLk39mLgNB-11" value="Membuat desain prototype" style="ellipse;whiteSpace=wrap;html=1;" vertex="1" parent="1">
          <mxGeometry x="740" y="300" width="100" height="50" as="geometry" />
        </mxCell>
        <mxCell id="SgcpTPaqbiLLk39mLgNB-26" style="edgeStyle=orthogonalEdgeStyle;curved=1;rounded=0;orthogonalLoop=1;jettySize=auto;html=1;exitX=1;exitY=0.5;exitDx=0;exitDy=0;entryX=0.5;entryY=1;entryDx=0;entryDy=0;" edge="1" parent="1" source="SgcpTPaqbiLLk39mLgNB-12" target="SgcpTPaqbiLLk39mLgNB-11">
          <mxGeometry relative="1" as="geometry" />
        </mxCell>
        <mxCell id="SgcpTPaqbiLLk39mLgNB-12" value="Penjadwalan" style="ellipse;whiteSpace=wrap;html=1;" vertex="1" parent="1">
          <mxGeometry x="600" y="393" width="90" height="40" as="geometry" />
        </mxCell>
        <mxCell id="SgcpTPaqbiLLk39mLgNB-15" style="edgeStyle=orthogonalEdgeStyle;rounded=0;orthogonalLoop=1;jettySize=auto;html=1;entryX=1;entryY=0.5;entryDx=0;entryDy=0;" edge="1" parent="1" source="SgcpTPaqbiLLk39mLgNB-13" target="SgcpTPaqbiLLk39mLgNB-3">
          <mxGeometry relative="1" as="geometry" />
        </mxCell>
        <mxCell id="SgcpTPaqbiLLk39mLgNB-13" value="Implementasi" style="rounded=0;whiteSpace=wrap;html=1;" vertex="1" parent="1">
          <mxGeometry x="595" y="150" width="100" height="40" as="geometry" />
        </mxCell>
        <mxCell id="SgcpTPaqbiLLk39mLgNB-22" value="Iterasi fungsional prototype" style="text;html=1;strokeColor=none;fillColor=none;align=center;verticalAlign=middle;whiteSpace=wrap;rounded=0;" vertex="1" parent="1">
          <mxGeometry x="185" y="310" width="110" height="30" as="geometry" />
        </mxCell>
        <mxCell id="SgcpTPaqbiLLk39mLgNB-29" value="" style="endArrow=classic;html=1;rounded=0;curved=1;entryX=0.5;entryY=1;entryDx=0;entryDy=0;exitX=0.5;exitY=0;exitDx=0;exitDy=0;" edge="1" parent="1" source="SgcpTPaqbiLLk39mLgNB-10" target="SgcpTPaqbiLLk39mLgNB-13">
          <mxGeometry width="50" height="50" relative="1" as="geometry">
            <mxPoint x="540" y="350" as="sourcePoint" />
            <mxPoint x="590" y="300" as="targetPoint" />
          </mxGeometry>
        </mxCell>
        <mxCell id="SgcpTPaqbiLLk39mLgNB-30" value="Iterasi desain prototype" style="text;html=1;strokeColor=none;fillColor=none;align=center;verticalAlign=middle;whiteSpace=wrap;rounded=0;" vertex="1" parent="1">
          <mxGeometry x="620" y="310" width="90" height="30" as="geometry" />
        </mxCell>
      </root>
    </mxGraphModel>
  </diagram>
</mxfile>
